<svg width="14" height="15" viewBox="0 0 14 15" fill="none" xmlns="http://www.w3.org/2000/svg">
<path d="M4.03846 6.92308C3.27341 6.92308 2.5397 6.61916 1.99873 6.07819C1.45776 5.53722 1.15385 4.80351 1.15385 4.03846V1.73077C1.15385 1.57776 1.21463 1.43102 1.32282 1.32282C1.43102 1.21463 1.57776 1.15385 1.73077 1.15385H2.30769C2.4607 1.15385 2.60744 1.09306 2.71564 0.984869C2.82383 0.876675 2.88462 0.729933 2.88462 0.576923C2.88462 0.423914 2.82383 0.277171 2.71564 0.168977C2.60744 0.0607828 2.4607 0 2.30769 0H1.73077C1.27174 0 0.831513 0.182348 0.506931 0.506931C0.182348 0.831513 0 1.27174 0 1.73077V4.03846C0.000741589 4.69023 0.159676 5.33208 0.463154 5.90889C0.766631 6.4857 1.20558 6.98023 1.74231 7.35C2.25798 7.80463 2.67618 8.35904 2.97166 8.97976C3.26715 9.60048 3.4338 10.2746 3.46154 10.9615C3.46154 12.0326 3.88702 13.0598 4.64438 13.8172C5.40174 14.5745 6.42893 15 7.5 15C8.57107 15 9.59826 14.5745 10.3556 13.8172C11.113 13.0598 11.5385 12.0326 11.5385 10.9615V10.3038C12.0823 10.1634 12.5563 9.82948 12.8715 9.36461C13.1867 8.89974 13.3216 8.33585 13.2508 7.77865C13.1801 7.22145 12.9085 6.70919 12.4871 6.33789C12.0656 5.96659 11.5232 5.76174 10.9615 5.76174C10.3999 5.76174 9.85747 5.96659 9.43602 6.33789C9.01457 6.70919 8.74301 7.22145 8.67224 7.77865C8.60147 8.33585 8.73634 8.89974 9.05158 9.36461C9.36681 9.82948 9.84077 10.1634 10.3846 10.3038V10.9615C10.3846 11.7266 10.0807 12.4603 9.53973 13.0013C8.99876 13.5422 8.26505 13.8462 7.5 13.8462C6.73495 13.8462 6.00124 13.5422 5.46027 13.0013C4.9193 12.4603 4.61538 11.7266 4.61538 10.9615C4.64459 10.2738 4.81303 9.59911 5.11053 8.97834C5.40802 8.35757 5.82838 7.80361 6.34615 7.35C6.88075 6.97894 7.31745 6.48386 7.61888 5.90713C7.9203 5.3304 8.07747 4.68921 8.07692 4.03846V1.73077C8.07692 1.27174 7.89457 0.831513 7.56999 0.506931C7.24541 0.182348 6.80518 0 6.34615 0H5.76923C5.61622 0 5.46948 0.0607828 5.36128 0.168977C5.25309 0.277171 5.19231 0.423914 5.19231 0.576923C5.19231 0.729933 5.25309 0.876675 5.36128 0.984869C5.46948 1.09306 5.61622 1.15385 5.76923 1.15385H6.34615C6.49916 1.15385 6.64591 1.21463 6.7541 1.32282C6.86229 1.43102 6.92308 1.57776 6.92308 1.73077V4.03846C6.92308 4.41727 6.84846 4.79238 6.7035 5.14236C6.55853 5.49233 6.34605 5.81033 6.07819 6.07819C5.81033 6.34605 5.49233 6.55853 5.14236 6.7035C4.79238 6.84846 4.41727 6.92308 4.03846 6.92308ZM10.9615 9.23077C10.6555 9.23077 10.362 9.1092 10.1456 8.89282C9.92926 8.67643 9.80769 8.38294 9.80769 8.07692C9.80769 7.7709 9.92926 7.47742 10.1456 7.26103C10.362 7.04464 10.6555 6.92308 10.9615 6.92308C11.2676 6.92308 11.561 7.04464 11.7774 7.26103C11.9938 7.47742 12.1154 7.7709 12.1154 8.07692C12.1154 8.38294 11.9938 8.67643 11.7774 8.89282C11.561 9.1092 11.2676 9.23077 10.9615 9.23077Z" fill="black"/>
</svg>
